<svg id="Capa_1" enable-background="new 0 0 512 512" height="512" viewBox="0 0 512 512" width="512" xmlns="http://www.w3.org/2000/svg"><g><g><g><g><path d="m444.358 12.331c-18.269-10.547-41.651-3.264-50.698 15.792l-37.493 78.973c4.879 12.069 7.572 25.255 7.572 39.073 0 .504-.012 1.006-.019 1.509 8.948 3.637 17.277 8.477 24.786 14.324l67.525-97.87c11.979-17.363 6.595-41.254-11.673-51.801z" fill="#fe99a0"/></g><path d="m444.358 12.331c-18.269-10.548-41.651-3.264-50.698 15.792l-37.493 78.973c4.879 12.069 7.572 25.256 7.572 39.073 0 .504-.012 1.006-.019 1.509l2.047.856 48.473-102.1c8.057-16.972 27.483-24.593 44.542-18.609-3.035-6.26-7.904-11.729-14.424-15.494z" fill="#fd8087"/></g><g><path d="m182.119 127.762c30.868 0 58.6 13.413 77.699 34.723 17.774-14.057 40.232-22.452 64.652-22.452 13.885 0 27.133 2.72 39.25 7.645.007-.503.019-1.005.019-1.509 0-57.608-46.701-104.309-104.309-104.309-52.456 0-95.863 38.724-103.208 89.143 8.281-2.115 16.957-3.241 25.897-3.241z" fill="#fee903"/></g><g><path d="m182.119 127.762c5.549 0 10.994.44 16.309 1.275 7.042-42.602 39.88-76.499 81.945-85.073-6.766-1.379-13.769-2.104-20.942-2.104-52.456 0-95.863 38.724-103.208 89.143 8.28-2.115 16.956-3.241 25.896-3.241z" fill="#f4d902"/></g><g><path d="m259.818 162.485c7.986-6.316 16.916-11.489 26.547-15.27l29.57-88.735c-16.283-10.514-35.68-16.619-56.504-16.619-.972 0-1.94.016-2.906.042l-31.658 95.002c13.387 6.024 25.278 14.786 34.951 25.58z" fill="#fe99a0"/></g><g><path d="m220.161 244.342c0-33.188 15.502-62.753 39.657-81.857-19.098-21.31-46.83-34.723-77.699-34.723-57.608 0-104.309 46.701-104.309 104.309 0 8.895 1.116 17.528 3.211 25.77h140.007c-.57-4.419-.867-8.924-.867-13.499z" fill="#a2e62e"/><g><path d="m133.225 257.841c-2.095-8.244-3.219-16.875-3.219-25.77 0-48.596 33.232-89.43 78.211-101.017-8.341-2.149-17.086-3.292-26.098-3.292-57.608 0-104.309 46.701-104.309 104.309 0 8.895 1.116 17.528 3.211 25.77z" fill="#97d729"/></g><g><path d="m427.91 257.841c.571-4.419.868-8.924.868-13.499 0-57.608-46.701-104.309-104.309-104.309s-104.309 46.701-104.309 104.309c0 4.574.297 9.08.868 13.499z" fill="#d88a55"/></g><g><path d="m273.255 257.841c-.571-4.419-.867-8.924-.867-13.499 0-48.59 33.224-89.42 78.195-101.012-8.346-2.151-17.096-3.296-26.114-3.296-57.608 0-104.309 46.701-104.309 104.309 0 4.575.297 9.08.868 13.499h52.227z" fill="#c57a44"/></g></g><g><path d="m119.534 466.807v32.693c0 2.761 2.239 5 5 5h257.521c2.761 0 5-2.239 5-5v-32.693z" fill="#def5fc"/></g><g><path d="m161.485 499.5v-32.693h-41.951v32.693c0 2.761 2.239 5 5 5h41.951c-2.761 0-5-2.239-5-5z" fill="#c8effe"/></g><g><path d="m77.521 295.035 27.76 167.635c.491 2.964 3.054 5.137 6.058 5.137h283.911c3.004 0 5.567-2.173 6.057-5.137l27.76-167.635z" fill="#fe99a0"/></g><g><path d="m147.22 462.67-27.76-167.635h-41.939l27.76 167.635c.491 2.964 3.054 5.137 6.058 5.137h41.939c-3.005 0-5.567-2.174-6.058-5.137z" fill="#fd8087"/></g><path d="m306.927 408.011c-9.128 18.928-28.499 31.989-50.921 31.989s-41.793-13.061-50.921-31.989h-108.855l9.052 54.663c.49 2.962 3.051 5.133 6.053 5.133h283.918c3.002 0 5.563-2.172 6.053-5.133l9.052-54.663z" fill="#08a9f1"/><g><path d="m105.281 462.67c.491 2.963 3.053 5.136 6.057 5.137h41.939c-3.004 0-5.566-2.174-6.057-5.137l-9.052-54.659h-41.938z" fill="#0290cf"/></g><g><path d="m437.906 296.035h-369.223c-10.547 0-19.097-8.55-19.097-19.097 0-10.547 8.55-19.097 19.097-19.097h369.223c10.547 0 19.097 8.55 19.097 19.097 0 10.547-8.55 19.097-19.097 19.097z" fill="#f1faff"/></g><g><path d="m115.006 276.938c0-10.547 8.55-19.097 19.097-19.097h-65.42c-10.547 0-19.097 8.55-19.097 19.097s8.55 19.097 19.097 19.097h65.42c-10.547 0-19.097-8.55-19.097-19.097z" fill="#def5fc"/></g><g><g><circle cx="256.006" cy="383.5" fill="#fff" r="56.5"/></g><g><path d="m230.006 383.5c0-25.917 17.457-47.744 41.25-54.4-4.853-1.358-9.963-2.1-15.25-2.1-31.204 0-56.5 25.296-56.5 56.5s25.296 56.5 56.5 56.5c5.287 0 10.397-.742 15.25-2.1-23.793-6.656-41.25-28.483-41.25-54.4z" fill="#f1faff"/></g></g></g><g><path d="m354.754 182.784c-3.347 3.346-8.792 3.346-12.138 0-2.93-2.929-7.677-2.928-10.607 0-2.929 2.929-2.928 7.678 0 10.607 4.598 4.597 10.637 6.896 16.676 6.896s12.078-2.299 16.675-6.896c2.929-2.929 2.929-7.678 0-10.606-2.928-2.93-7.677-2.93-10.606-.001z"/><path d="m292.364 208.359c-3.346 3.347-8.792 3.347-12.138 0-2.929-2.929-7.678-2.929-10.606 0-2.929 2.929-2.929 7.678 0 10.606 4.598 4.598 10.636 6.896 16.675 6.896s12.079-2.299 16.676-6.896c2.929-2.929 2.929-7.678 0-10.607-2.93-2.927-7.679-2.926-10.607.001z"/><path d="m172.439 178.075c0-4.142-3.358-7.5-7.5-7.5h-11.044c-4.142 0-7.5 3.358-7.5 7.5s3.358 7.5 7.5 7.5h11.044c4.142 0 7.5-3.358 7.5-7.5z"/><path d="m187.028 211.072h-11.044c-4.142 0-7.5 3.358-7.5 7.5s3.358 7.5 7.5 7.5h11.044c4.142 0 7.5-3.358 7.5-7.5s-3.358-7.5-7.5-7.5z"/><path d="m125.67 209.844h-11.044c-4.142 0-7.5 3.358-7.5 7.5s3.358 7.5 7.5 7.5h11.044c4.142 0 7.5-3.358 7.5-7.5s-3.358-7.5-7.5-7.5z"/><circle cx="340.506" cy="227.5" r="7.5"/><circle cx="390.506" cy="204.5" r="7.5"/><circle cx="300.506" cy="174.5" r="7.5"/><path d="m276.506 364.5h-41c-4.142 0-7.5 3.358-7.5 7.5s3.358 7.5 7.5 7.5h41c4.142 0 7.5-3.358 7.5-7.5s-3.358-7.5-7.5-7.5z"/><path d="m267.006 392.5h-22c-4.142 0-7.5 3.358-7.5 7.5s3.358 7.5 7.5 7.5h22c4.142 0 7.5-3.358 7.5-7.5s-3.358-7.5-7.5-7.5z"/><path d="m224.439 169.075c0-4.142-3.358-7.5-7.5-7.5h-11.044c-4.142 0-7.5 3.358-7.5 7.5s3.358 7.5 7.5 7.5h11.044c4.142 0 7.5-3.358 7.5-7.5z"/><path d="m437.906 250.341h-1.798c.107-1.987.171-3.986.171-5.999 0-33.265-14.608-63.177-37.739-83.677l26.612-38.571c2.352-3.41 1.495-8.08-1.914-10.433-3.41-2.352-8.08-1.495-10.433 1.914l-26.145 37.895c-4.899-3.291-10.073-6.202-15.477-8.698-.372-12.39-2.767-24.28-6.87-35.349l36.122-76.083c3.467-7.303 9.627-12.649 17.346-15.054 7.72-2.404 15.826-1.502 22.827 2.54s11.836 10.612 13.613 18.499.228 15.895-4.364 22.549l-17.175 24.893c-2.352 3.409-1.495 8.08 1.914 10.433 3.41 2.352 8.081 1.495 10.433-1.914l17.175-24.893c6.896-9.994 9.319-22.52 6.65-34.365s-10.23-22.121-20.746-28.192c-10.515-6.07-23.194-7.482-34.788-3.871-11.593 3.611-21.228 11.973-26.436 22.941l-30.862 65.007c-19.41-33.199-55.437-55.552-96.591-55.552-54.443 0-99.91 39.118-109.8 90.721-45.855 13.952-79.32 56.633-79.32 106.989 0 6.222.524 12.323 1.508 18.271h-3.135c-14.666 0-26.597 11.932-26.597 26.597s11.932 26.597 26.597 26.597h2.644l26.556 160.36c1.095 6.612 6.754 11.412 13.457 11.412h.695v24.192c0 6.893 5.607 12.5 12.5 12.5h257.521c6.893 0 12.5-5.607 12.5-12.5v-24.193h.695c6.703 0 12.362-4.799 13.457-11.412l26.556-160.36h2.644c14.666 0 26.597-11.931 26.597-26.597s-11.934-26.597-26.6-26.597zm-16.627-5.999c0 2.016-.074 4.014-.198 5.999h-35.125c.031-.276.05-.556.05-.841 0-4.142-3.358-7.5-7.5-7.5s-7.5 3.358-7.5 7.5c0 .285.019.564.05.841h-106.1c.031-.276.05-.556.05-.841 0-4.142-3.358-7.5-7.5-7.5s-7.5 3.358-7.5 7.5c0 .285.019.564.05.841h-22.198c-.124-1.985-.198-3.983-.198-5.999 0-53.38 43.428-96.809 96.809-96.809s96.81 43.428 96.81 96.809zm-159.345-194.949c16.308.416 31.623 4.888 44.979 12.438l-26.591 79.796c-6.946 2.997-13.529 6.679-19.665 10.96-7.83-7.738-16.786-14.338-26.608-19.513zm93.861 87.613c-9.944-2.907-20.455-4.473-31.326-4.473-9.077 0-17.901 1.095-26.356 3.146l21.7-65.117c19.94 15.96 33.452 39.626 35.982 66.444zm-109.983-86.682-25.542 76.648c-11.911-4.339-24.758-6.71-38.151-6.71-5.531 0-10.968.41-16.287 1.19 9.825-37.172 41.251-65.65 79.98-71.128zm-160.502 181.746c0-53.38 43.428-96.809 96.809-96.809 25.859 0 49.38 10.194 66.762 26.771-22.25 20.45-36.22 49.777-36.22 82.309 0 2.013.064 4.012.171 5.999h-125.774c-1.138-5.919-1.748-12.023-1.748-18.27zm308.786 228.237h-39.09c-4.142 0-7.5 3.358-7.5 7.5s3.358 7.5 7.5 7.5h24.549v21.693h-252.521v-21.693h192.972c4.142 0 7.5-3.358 7.5-7.5s-3.358-7.5-7.5-7.5h-207.514l-7.418-44.796h95.548c11.085 19.104 31.751 31.989 55.384 31.989s44.298-12.885 55.384-31.989h90.125zm-138.09-27.807c-27.019 0-49-21.981-49-49s21.981-49 49-49 49 21.981 49 49-21.981 49-49 49zm181.9-143.965h-240.9c-4.142 0-7.5 3.358-7.5 7.5s3.358 7.5 7.5 7.5h223.052l-16.059 96.976h-86.305c1.497-5.421 2.313-11.121 2.313-17.011 0-35.29-28.71-64-64-64s-64 28.71-64 64c0 5.89.816 11.59 2.313 17.011h-91.73l-16.059-96.976h75.475c4.142 0 7.5-3.358 7.5-7.5s-3.358-7.5-7.5-7.5h-93.323c-6.395 0-11.597-5.202-11.597-11.597s5.203-11.597 11.597-11.597h369.223c6.395 0 11.597 5.203 11.597 11.597s-5.202 11.597-11.597 11.597z"/></g></g></svg>